<?xml version="1.0" encoding="utf-8"?>
<!-- Generator: Adobe Illustrator 16.0.0, SVG Export Plug-In . SVG Version: 6.00 Build 0)  -->
<!DOCTYPE svg PUBLIC "-//W3C//DTD SVG 1.1//EN" "http://www.w3.org/Graphics/SVG/1.1/DTD/svg11.dtd">
<svg version="1.1" id="Layer_1" xmlns="http://www.w3.org/2000/svg" xmlns:xlink="http://www.w3.org/1999/xlink" x="0px" y="0px"
	 width="987.77px" height="650.744px" viewBox="0 0 987.77 650.744" enable-background="new 0 0 987.77 650.744"
	 xml:space="preserve">
<path fill="#DF1F26" d="M185.526,1.554L6.509,99.928c-8.641,4.739-8.686,17.128-0.09,21.948l178.668,100.108
	c8.434,4.731,8.577,16.832,0.246,21.746l-53.038,31.342c-8.43,4.977-8.174,17.262,0.457,21.871l183.004,97.84
	c0.313,0.18,0.627,0.35,0.923,0.557l248.91,162.113c12.627,8.215,26.374-8.716,15.729-19.379L365.965,322.133
	c-6.824-6.851-3.658-18.522,5.694-21.002l60.378-15.921c9.11-2.408,12.411-13.631,6.07-20.598L200.847,4.097
	C196.938-0.18,190.616-1.247,185.526,1.554"/>
<path fill="#DF1F26" d="M625.394,68.084l-185.188,86.218c-8.922,4.161-9.802,16.518-1.542,21.89l171.583,111.802
	c8.116,5.278,7.442,17.366-1.201,21.715l-55.016,27.736c-8.734,4.403-9.299,16.671-0.985,21.862l176.058,109.825
	c0.312,0.18,0.609,0.395,0.896,0.601l237.53,178.345c12.052,9.049,26.902-6.923,17.002-18.276L784.056,399.984
	c-6.358-7.29-2.432-18.732,7.065-20.572l61.31-11.872c9.254-1.794,13.3-12.751,7.444-20.123L640.513,71.65
	C636.9,67.112,630.658,65.632,625.394,68.084"/>
<g>
</g>
<g>
</g>
<g>
</g>
<g>
</g>
<g>
</g>
<g>
</g>
<g>
</g>
<g>
</g>
<g>
</g>
<g>
</g>
<g>
</g>
<g>
</g>
<g>
</g>
<g>
</g>
<g>
</g>
</svg>
