<?xml version="1.0" encoding="utf-8"?>
<!-- Generator: Adobe Illustrator 16.0.0, SVG Export Plug-In . SVG Version: 6.00 Build 0)  -->
<!DOCTYPE svg PUBLIC "-//W3C//DTD SVG 1.1//EN" "http://www.w3.org/Graphics/SVG/1.1/DTD/svg11.dtd">
<svg version="1.1" id="Layer_1" xmlns="http://www.w3.org/2000/svg" xmlns:xlink="http://www.w3.org/1999/xlink" x="0px" y="0px"
	 width="991.522px" height="230.401px" viewBox="0 0 991.522 230.401" enable-background="new 0 0 991.522 230.401"
	 xml:space="preserve">
<path fill="#DE2127" d="M30.859,28.479c4.166,56.477,8.333,112.953,12.501,169.43c19.504-1.44,39.017-2.785,58.531-4.037
	c0.601,9.338,1.201,18.683,1.799,28.023c-29.397,1.885-58.783,3.986-88.159,6.296C10.355,162.406,5.179,96.619,0,30.833
	C10.285,30.025,20.57,29.238,30.859,28.479"/>
<path fill="#DE2127" d="M144.958,21.099c2.207,39.688,4.414,79.372,6.62,119.061c0.946,16.988,4.448,29.244,10.475,36.791
	c8.981,10.899,20.999,15.959,36.132,15.223c15.212-0.739,26.729-6.932,34.611-18.647c5.278-7.845,7.581-20.385,6.867-37.637
	l-4.925-119.142c10.303-0.423,20.606-0.826,30.909-1.2c1.547,42.454,3.096,84.909,4.643,127.366
	c0.757,20.845-5.196,38.242-17.719,52.253c-14.102,15.617-31.725,23.894-53.033,24.927c-21.31,1.033-39.614-5.502-55.076-19.688
	c-13.822-12.734-21.431-29.471-22.691-50.296l-7.698-127.216C124.366,22.271,134.662,21.672,144.958,21.099"/>
<path fill="#DE2127" d="M466.213,22.063c0.056,11.796,0.111,23.595,0.166,35.389c-17.815-14.36-36.328-21.424-55.37-21.168
	c-20.979,0.283-38.541,7.931-52.533,22.859c-14.086,14.847-20.785,32.816-20.252,53.832c0.531,20.769,8.102,38.091,22.572,52.051
	c14.472,13.964,31.875,20.765,52.353,20.49c10.586-0.142,19.555-1.942,26.933-5.429c4.117-1.746,8.385-4.093,12.805-7.028
	c4.421-2.938,9.08-6.467,13.984-10.593c0.058,12.006,0.113,24.015,0.171,36.027c-17.133,9.739-35.058,14.726-53.899,14.978
	c-28.35,0.385-52.701-8.969-73.343-28.193c-20.555-19.402-31.402-43.079-32.258-71.192c-0.766-25.2,7.053-47.945,23.702-68.14
	c20.479-24.729,47.773-37.447,81.512-37.893C431.17,7.81,449.028,12.488,466.213,22.063"/>
<path fill="#DE2127" d="M617.72,40.616c-27.26-0.528-54.524-0.881-81.787-1.056c-0.1,15.858-0.201,31.712-0.306,47.57
	c26.273,0.167,52.543,0.5,78.812,1c-0.18,9.356-0.354,18.714-0.533,28.076c-26.152-0.499-52.302-0.83-78.458-0.997
	c-0.14,22.05-0.279,44.105-0.421,66.16c26.647,0.168,53.298,0.511,79.945,1.026c-0.182,9.362-0.365,18.721-0.547,28.079
	c-36.508-0.708-73.022-1.093-109.534-1.145c0.097-65.988,0.196-131.978,0.294-197.971c37.693,0.056,75.392,0.449,113.079,1.18
	L617.72,40.616z"/>
<path fill="#DE2127" d="M653.764,211.365c1.818-70.456,3.637-140.911,5.457-211.365c48.612,51.62,96.022,103.799,142.22,156.494
	c2.269-45.801,4.535-91.605,6.804-137.408c10.298,0.51,20.596,1.044,30.896,1.606c-3.807,69.902-7.608,139.809-11.412,209.709
	c-45.382-52.762-91.971-105.021-139.76-156.73c-1.418,46.178-2.838,92.358-4.256,138.539
	C673.728,211.902,663.746,211.621,653.764,211.365"/>
<path fill="#DE2127" d="M942.643,55.326c-4.024,56.489-8.046,112.974-12.07,169.463c-9.968-0.712-19.935-1.396-29.905-2.058
	c3.748-56.507,7.493-113.012,11.24-169.519c-15.611-1.035-31.227-2.009-46.843-2.932c0.552-9.343,1.101-18.686,1.649-28.03
	c41.621,2.447,83.229,5.309,124.808,8.582c-0.731,9.331-1.468,18.663-2.203,27.994C973.763,57.601,958.204,56.433,942.643,55.326"/>
<g>
</g>
<g>
</g>
<g>
</g>
<g>
</g>
<g>
</g>
<g>
</g>
<g>
</g>
<g>
</g>
<g>
</g>
<g>
</g>
<g>
</g>
<g>
</g>
<g>
</g>
<g>
</g>
<g>
</g>
</svg>
