<?xml version="1.0" encoding="utf-8"?>
<!-- Generator: Adobe Illustrator 16.0.0, SVG Export Plug-In . SVG Version: 6.00 Build 0)  -->
<!DOCTYPE svg PUBLIC "-//W3C//DTD SVG 1.1//EN" "http://www.w3.org/Graphics/SVG/1.1/DTD/svg11.dtd">
<svg version="1.1" id="Layer_1" xmlns="http://www.w3.org/2000/svg" xmlns:xlink="http://www.w3.org/1999/xlink" x="0px" y="0px"
	 width="999.448px" height="118.255px" viewBox="0 0 999.448 118.255" enable-background="new 0 0 999.448 118.255"
	 xml:space="preserve">
<path fill="#838383" d="M0,86.947c3.104-21.66,6.206-43.319,9.309-64.976c9.594,19.623,19.346,38.645,29.258,57.091l5.62-41.822
	c2.447,0.68,4.894,1.348,7.341,1.996c-2.814,21.234-5.63,42.464-8.444,63.697C33.058,84.809,23.188,66.11,13.481,46.821
	c-2.005,14.17-4.009,28.336-6.014,42.503C4.978,88.553,2.49,87.761,0,86.947"/>
<path fill="#838383" d="M88.991,56.498c-6.515-1.256-13.032-2.619-19.546-4.097c-0.612,4.779-1.225,9.559-1.833,14.335
	c6.351,1.404,12.703,2.701,19.059,3.896c-0.344,2.803-0.686,5.605-1.031,8.408c-6.371-1.176-12.74-2.453-19.108-3.839
	c-0.853,6.645-1.699,13.293-2.549,19.938c6.599,1.386,13.199,2.653,19.794,3.812c-0.344,2.8-0.687,5.607-1.031,8.405
	c-9.106-1.565-18.211-3.345-27.314-5.347c2.583-19.936,5.167-39.873,7.75-59.81c8.945,2.177,17.894,4.138,26.839,5.889
	C89.677,50.893,89.336,53.695,88.991,56.498"/>
<path fill="#838383" d="M102.056,50.323c2.646,13.89,5.347,27.675,8.094,41.359c6.096-13.424,12.136-26.824,18.122-40.199
	c2.639,14.538,5.332,28.972,8.079,43.298c5.959-12.519,11.865-25.014,17.714-37.485c2.659,0.247,5.315,0.485,7.974,0.705
	c-9.376,19.854-18.884,39.773-28.529,59.738c-2.739-14.121-5.428-28.352-8.063-42.687c-5.934,13.271-11.926,26.566-17.972,39.881
	c-4.592-21.745-9.056-43.768-13.388-66.062C96.743,49.373,99.401,49.859,102.056,50.323"/>
<path fill="#838383" d="M214.114,68.519c-6.515-0.066-13.032-0.212-19.546-0.441c-0.437,4.563-0.866,9.124-1.303,13.684
	c6.352,0.185,12.708,0.289,19.063,0.324c-0.241,2.67-0.481,5.346-0.723,8.015c-6.367-0.016-12.739-0.102-19.107-0.264
	c-0.603,6.344-1.203,12.686-1.81,19.029c6.6,0.116,13.199,0.152,19.797,0.107c-0.237,2.673-0.477,5.341-0.718,8.011
	c-9.104,0.09-18.211,0.031-27.315-0.184c1.848-19.038,3.695-38.073,5.542-57.111c8.946,0.426,17.895,0.695,26.84,0.819
	C214.592,63.178,214.355,65.85,214.114,68.519"/>
<path fill="#838383" d="M219.579,116.831c1.745-20.022,3.484-40.047,5.226-60.066c10.566,14.351,21.291,28.247,32.176,41.705
	l2.963-38.486c2.449-0.085,4.896-0.184,7.339-0.289c-1.462,19.518-2.925,39.04-4.387,58.561
	c-10.995-13.185-21.834-26.798-32.511-40.866c-1.112,13.086-2.225,26.17-3.339,39.256
	C224.557,116.716,222.068,116.78,219.579,116.831"/>
<path fill="#838383" d="M302.789,83.461c6.756-0.594,13.514-1.246,20.27-1.944c-0.035,0.591-0.068,1.182-0.105,1.776
	c-0.233,4.039-0.873,7.658-1.929,10.862c-1.018,2.971-2.612,5.821-4.79,8.555c-4.919,6.127-10.95,9.593-18.047,10.295
	c-6.928,0.685-12.681-1.537-17.22-6.683c-4.537-5.171-6.505-11.704-5.938-19.508c0.575-7.978,3.55-14.886,8.884-20.727
	c5.335-5.866,11.522-9.012,18.596-9.536c3.801-0.282,7.292,0.305,10.485,1.757c3.044,1.456,5.978,3.976,8.806,7.545
	c-1.858,2.011-3.716,4.025-5.582,6.04c-3.654-5.52-8.34-8.059-14.084-7.613c-5.157,0.403-9.611,2.688-13.382,6.921
	c-3.769,4.16-5.871,9.193-6.288,15.107c-0.426,6.102,1.185,10.988,4.855,14.603c3.434,3.35,7.315,4.811,11.62,4.396
	c3.667-0.348,7.052-2.039,10.141-5.042c3.087-3.028,4.91-6.457,5.48-10.29c-4.088,0.413-8.178,0.808-12.261,1.18
	C302.459,88.59,302.627,86.025,302.789,83.461"/>
<path fill="#838383" d="M341.124,54.134c-0.81,15.253-1.617,30.5-2.428,45.754c4.84-0.604,9.681-1.227,14.519-1.872
	c-0.12,2.501-0.243,5.005-0.364,7.509c-7.34,1.004-14.686,1.957-22.026,2.856c0.984-17.833,1.971-35.67,2.961-53.504
	C336.233,54.636,338.677,54.388,341.124,54.134"/>
<path fill="#838383" d="M392.234,87.18c-7.035,1.064-14.071,2.094-21.102,3.086c-2.015,4.505-4.036,9.021-6.067,13.547
	c-2.682,0.384-5.362,0.765-8.047,1.137c9.054-19.854,17.953-39.541,26.704-59.053c6.993,17.513,14.136,34.765,21.418,51.764
	c-2.724,0.44-5.447,0.88-8.175,1.312C395.38,95.055,393.803,91.123,392.234,87.18 M389.478,80.258
	c-2.209-5.539-4.406-11.106-6.586-16.696c-2.769,6.261-5.551,12.536-8.349,18.832C379.52,81.697,384.5,80.985,389.478,80.258"/>
<path fill="#838383" d="M411.328,96.646c0.553-18.307,1.109-36.614,1.667-54.921c11.411,11.43,22.982,22.546,34.716,33.372
	c0.215-11.69,0.43-23.385,0.647-35.079c2.444-0.368,4.892-0.74,7.339-1.115c-0.285,17.779-0.567,35.562-0.847,53.342
	c-11.844-10.61-23.526-21.504-35.053-32.705c-0.335,11.957-0.667,23.912-1,35.868C416.307,95.823,413.817,96.236,411.328,96.646"/>
<path fill="#838383" d="M466.76,87.074c0.199-16.655,0.397-33.31,0.595-49.967c3.4-0.524,6.804-1.055,10.204-1.586
	c4.894-0.763,8.755-0.877,11.588-0.343c3.043,0.479,5.803,1.675,8.281,3.562c5.028,3.823,7.564,9.454,7.577,16.96
	c0.007,7.521-2.625,14.064-7.941,19.68c-2.667,2.806-5.474,4.938-8.402,6.384c-2.736,1.408-6.623,2.568-11.644,3.474
	C473.6,85.852,470.18,86.465,466.76,87.074 M474.295,78.678c1.121-0.196,2.239-0.394,3.359-0.591
	c3.347-0.591,6.133-1.437,8.353-2.535c2.219-1.138,4.226-2.673,6.02-4.605c3.674-3.984,5.502-8.637,5.509-13.984
	c0.003-5.387-1.789-9.461-5.363-12.241c-3.219-2.476-7.958-3.219-14.23-2.221c-1.106,0.175-2.21,0.353-3.316,0.527
	C474.518,54.912,474.407,66.797,474.295,78.678"/>
<path fill="#838383" d="M547.645,31.383c0.232,13.678,0.471,27.355,0.709,41.032c-2.491,0.438-4.983,0.88-7.471,1.322
	c-0.2-13.734-0.397-27.466-0.598-41.2c-3.737,0.588-7.475,1.182-11.211,1.773c-0.025-2.281-0.048-4.566-0.073-6.851
	c9.896-1.538,19.784-3.058,29.677-4.544c0.048,2.246,0.096,4.492,0.146,6.736C555.1,30.23,551.37,30.802,547.645,31.383"/>
<path fill="#838383" d="M592.367,53.504c-7.036,1.112-14.068,2.253-21.104,3.417c-1.729,4.121-3.468,8.255-5.212,12.405
	c-2.686,0.467-5.367,0.928-8.05,1.395c7.812-18.271,15.477-36.29,22.985-54.05c8.233,15.521,16.613,30.853,25.136,46.005
	c-2.724,0.432-5.45,0.867-8.176,1.309C596.082,60.502,594.222,57.006,592.367,53.504 M589.116,47.358
	c-2.606-4.919-5.199-9.854-7.776-14.808c-2.37,5.701-4.757,11.424-7.159,17.172C579.16,48.922,584.136,48.134,589.116,47.358"/>
<path fill="#838383" d="M638.235,18.889c-1.929,1.337-3.861,2.685-5.803,4.038c-1.208-1.665-2.329-2.717-3.369-3.139
	c-1.083-0.496-2.459-0.642-4.118-0.426c-2.04,0.26-3.708,1.02-5.009,2.288c-1.299,1.249-1.912,2.688-1.84,4.315
	c0.099,2.237,1.955,3.808,5.568,4.69c1.658,0.403,3.317,0.808,4.977,1.211c4.052,0.973,7.058,2.412,9.016,4.318
	c1.957,1.907,3.021,4.417,3.19,7.532c0.226,4.176-1.1,7.82-3.988,10.982c-2.911,3.181-6.636,5.119-11.171,5.796
	c-4.299,0.646-7.902,0.013-10.801-1.926c-2.857-1.944-4.71-5.021-5.567-9.228c2.487-0.896,4.977-1.786,7.461-2.67
	c0.458,2.657,1.138,4.43,2.037,5.336c1.621,1.761,3.909,2.415,6.852,1.982c2.326-0.34,4.221-1.341,5.683-2.996
	c1.461-1.655,2.135-3.581,2.023-5.787c-0.044-0.887-0.222-1.681-0.524-2.38c-0.302-0.702-0.749-1.325-1.344-1.869
	c-0.591-0.543-1.348-1.026-2.266-1.446c-0.919-0.417-2.002-0.792-3.258-1.116l-4.824-1.182c-6.838-1.712-10.35-5.145-10.565-10.287
	c-0.146-3.467,1.134-6.556,3.829-9.254c2.694-2.713,6.114-4.325,10.271-4.842C630.299,12.133,634.806,14.176,638.235,18.889"/>
<path fill="#838383" d="M662.725,15.771c0.817,12.812,1.634,25.617,2.453,38.426c-2.49,0.312-4.979,0.632-7.47,0.963
	c-0.782-12.867-1.561-25.728-2.343-38.588c-3.736,0.414-7.474,0.843-11.211,1.281c-0.121-2.139-0.238-4.278-0.358-6.417
	c9.892-1.134,19.78-2.18,29.673-3.117l0.436,6.311C670.177,14.996,666.45,15.377,662.725,15.771"/>
<path fill="#838383" d="M707.38,11.767c-6.515,0.47-13.032,0.992-19.547,1.563c0.264,3.537,0.527,7.07,0.791,10.604
	c6.355-0.594,12.711-1.144,19.061-1.64c0.175,2.062,0.347,4.128,0.519,6.19c-6.372,0.518-12.74,1.09-19.111,1.706
	c0.371,4.916,0.737,9.833,1.105,14.749c6.601-0.693,13.197-1.335,19.794-1.923c0.175,2.065,0.347,4.128,0.519,6.19
	c-9.104,0.839-18.209,1.783-27.313,2.818c-1.058-14.77-2.116-29.541-3.175-44.314c8.946-0.804,17.895-1.522,26.84-2.132
	C707.037,7.643,707.208,9.705,707.38,11.767"/>
<path fill="#838383" d="M738.852,46.952c1.99-15.617,3.912-31.124,5.771-46.523c6.677,10.887,13.433,21.711,20.262,32.483
	c4.644-11.135,9.203-22.107,13.684-32.912c4.827,15.021,9.711,29.969,14.656,44.864c-2.552,0.019-5.106,0.054-7.663,0.095
	c-2.589-8.38-5.16-16.788-7.718-25.206c-3.775,9.117-7.607,18.352-11.498,27.697c-5.747-8.97-11.442-17.983-17.086-27.033
	c-0.874,8.653-1.771,17.334-2.679,26.048C744,46.618,741.426,46.78,738.852,46.952"/>
<path fill="#838383" d="M831.387,35.61c-7.035-0.333-14.072-0.568-21.104-0.705c-1.392,3.302-2.793,6.616-4.2,9.95
	c-2.683-0.019-5.365-0.025-8.047-0.019c6.334-14.727,12.512-29.134,18.546-43.215c9.711,14.92,19.568,29.767,29.575,44.557
	c-2.727-0.166-5.45-0.312-8.177-0.445C835.775,42.363,833.576,38.988,831.387,35.61 M827.542,29.687
	c-3.079-4.735-6.145-9.477-9.195-14.227c-1.897,4.528-3.812,9.088-5.743,13.68C817.583,29.274,822.562,29.458,827.542,29.687"/>
<path fill="#838383" d="M856.059,23.017c5.526-4.745,11.005-9.34,16.442-13.789c3.263,0.435,6.53,0.886,9.796,1.366
	c-6.311,4.881-12.679,9.962-19.104,15.237c8.59,8.05,17.252,16.134,25.987,24.263c-3.333-0.413-6.669-0.798-10.002-1.16
	c-6.916-6.527-13.789-13.032-20.618-19.521c-0.442,0.368-0.888,0.74-1.331,1.109c0.863,5.535,1.722,11.068,2.586,16.6
	c-2.491-0.196-4.979-0.381-7.472-0.55c-2.036-13.426-4.077-26.852-6.113-40.278c2.444,0.226,4.89,0.464,7.337,0.715
	C854.4,12.345,855.23,17.681,856.059,23.017"/>
<path fill="#838383" d="M916.86,21.949c-6.516-1.303-13.035-2.491-19.551-3.575c0.561,3.137,1.122,6.276,1.686,9.416
	c6.351,1.02,12.703,2.142,19.057,3.365c0.35,1.833,0.695,3.667,1.042,5.501c-6.372-1.204-12.739-2.308-19.108-3.309
	c0.783,4.363,1.562,8.73,2.34,13.096c6.601,0.985,13.199,2.078,19.797,3.282c0.347,1.834,0.693,3.668,1.043,5.501
	c-9.104-1.633-18.209-3.051-27.313-4.274c-2.29-13.111-4.582-26.226-6.874-39.341c8.946,1.414,17.891,3.019,26.84,4.84
	C916.164,18.282,916.51,20.119,916.86,21.949"/>
<path fill="#838383" d="M946.414,44.302c6.178,6.629,12.398,13.289,18.652,19.979c-3.043-0.772-6.091-1.522-9.136-2.244
	c-5.792-6.32-11.558-12.618-17.279-18.895c-0.445-0.099-0.891-0.197-1.339-0.292l3.133,15.729c-2.49-0.521-4.979-1.026-7.47-1.513
	c-2.505-12.86-5.013-25.721-7.52-38.582c2.866,0.63,5.732,1.281,8.6,1.955c6.429,1.516,11.265,3.663,14.513,6.295
	c3.595,2.927,5.758,6.126,6.482,9.574c0.572,2.695,0.064,4.748-1.522,6.184C951.943,43.933,949.569,44.523,946.414,44.302
	 M936.308,37.793c0.784,0.174,1.565,0.349,2.349,0.527c7.01,1.589,10.086,0.397,9.221-3.778c-0.807-3.896-4.602-6.737-11.372-8.336
	c-0.877-0.206-1.751-0.412-2.625-0.609C934.69,29.665,935.498,33.729,936.308,37.793"/>
<path fill="#838383" d="M993.094,42.738c-1.782,0.219-3.562,0.454-5.348,0.702c-1.459-1.853-2.742-3.172-3.854-3.953
	c-1.173-0.861-2.587-1.561-4.252-2.088c-2.041-0.645-3.636-0.728-4.783-0.245c-1.153,0.467-1.586,1.37-1.287,2.704
	c0.407,1.84,2.504,3.842,6.305,6.054c1.745,1.014,3.489,2.03,5.234,3.057c4.255,2.494,7.509,4.948,9.765,7.325
	c2.253,2.377,3.685,4.849,4.282,7.407c0.801,3.432-0.045,5.758-2.56,7.032c-2.529,1.286-6.068,1.249-10.604-0.08
	c-4.294-1.262-8.059-3.216-11.281-5.926c-3.175-2.698-5.481-5.892-6.928-9.609c2.418,0.254,4.833,0.523,7.249,0.816
	c0.825,2.313,1.763,4.014,2.803,5.104c1.89,2.068,4.312,3.518,7.258,4.395c2.322,0.692,4.118,0.692,5.384-0.016
	c1.264-0.706,1.689-1.955,1.273-3.766c-0.168-0.728-0.454-1.434-0.858-2.126c-0.406-0.689-0.946-1.379-1.627-2.065
	c-0.677-0.687-1.513-1.396-2.504-2.12c-0.988-0.721-2.148-1.478-3.47-2.263c-1.694-0.987-3.385-1.97-5.075-2.945
	c-7.201-4.179-11.242-8.297-12.158-12.518c-0.614-2.841,0.271-4.821,2.65-5.895c2.371-1.09,5.634-0.981,9.79,0.35
	C984.102,33.869,988.958,37.472,993.094,42.738"/>
<g>
</g>
<g>
</g>
<g>
</g>
<g>
</g>
<g>
</g>
<g>
</g>
<g>
</g>
<g>
</g>
<g>
</g>
<g>
</g>
<g>
</g>
<g>
</g>
<g>
</g>
<g>
</g>
<g>
</g>
</svg>
