<svg id="Layer_1" data-name="Layer 1" xmlns="http://www.w3.org/2000/svg" viewBox="0 0 450.64 441.05"><defs><style>.cls-1{fill:#de2127;}</style></defs><title>tshirt</title><path class="cls-1" d="M111.35,426.82c.49-1.59,1.74-1.73,3.16-1.81,21-1,41.86-3.85,62.75-6.13,19.89-2.17,39.68-5.21,59.53-7.68,15.1-1.88,30.27-3.28,45.36-5.25,13.13-1.72,26.48-.39,39.53-3.68,17.27-4.35,23.42-14.61,24.79-30.61.48-5.55.08-11.18.08-17.42-13,9.06-14.48,23.1-18.76,36-3.42-8-6.16-16.14-4.75-25,1.22-7.6.36-8.67-6.79-6-6.08,2.23-12,4.88-18,7.39-1.53.64-3,1.55-4.73,1.34l0,0c13.26-14.74,24.31-31.07,34.58-48,7.8-12.83,11.71-27,14.4-41.62,2.61-14.14,2.44-28.46,1.87-42.72-.43-10.91-1.9-21.79-1.86-32.75,0-1.81-.29-3.69.73-5.36,7.09-11.63,4.64-23.69,1.34-35.66-2.44-8.85-3.36-17.85-3.93-26.94,1.84.22,1.87,1.58,1.86,3s-.06,2.75,1.78,3c.6,4.24.94,8.54,1.85,12.71,3.55,16.27,6.58,32.53,4.66,49.34a53.22,53.22,0,0,0,3.57,25c1.52,4,3,8.2,3.07,12.56.17,15.37-2.09,30.6-4.76,45.59-2.52,14.18-7.63,27.89-11.51,41.83a20.81,20.81,0,0,1-5.95,10.19c-.51.47-2.08,1-1.33,1.54,3.41,2.38-.46,4.88.45,8.63,8-13.41,12.82-27,18.54-40.13,1,5.74,1.39,11.35,2.33,16.86,3.6,21.21,6.72,42.42,4.29,64.06-1.15,10.24-2.55,20.48-2.7,30.82-.5,3.8-3.2,2-4.94,1.72a331.86,331.86,0,0,0-38.37-3.64c-30.18-1.16-60,3.2-89.91,6.11-6.12.35-12.27.44-18.35,1.11-7.57.83-15.24,0-22.75,1.53l-13.9.31c-4.43-.2-8.86-.45-13.24.59H134.24l0,1.17h21.24c4.43.21,8.86.52,13.24-.58l13.78-.44c13.75-.19,27.46-1.06,41.15-2.24,13.41-.84,26.82-1.49,40.19-3,11.21-1.27,22.44-2.17,33.74-1.27-3.92,3-8.73,2-13.08,2.47-14.79,1.68-29.64,2.83-44.47,4-10.4.84-20.82,2-31.23,2-18,0-35.82,1.62-53.71,2.48A291.25,291.25,0,0,1,110.49,431c-1.41-.15-2.67-.24-3.13-1.85,2.49-.69,5.37.76,8-1.16C114,426.68,112.55,427.14,111.35,426.82Z" transform="translate(0 -5.11)"/><path class="cls-1" d="M341.62,123c1.51-14.52,4.94-28.29,15.61-39.39-.42,3.86-.65,7.76-1.31,11.58a29.44,29.44,0,0,0,.94,13.29c.73,2.57,2.43,3.49,5.18,3.66,4.93.32,9.32-1.69,15.13-3.34-4.32,6-7.87,10.85-10.74,16.22-10.71,20.07-9.17,40.18-.67,60.38,1.61,3.83,3.76,7.43,5.55,11.19,1.06,2.22,2.63,2.79,4.89,2.09,13-4,26.1-7.76,37.93-14.86,10.75-6.45,13.82-13.94,11.86-26.4-2.7-17.16-9.83-32.72-16.55-48.39-6.21-14.5-13.06-28.74-20.43-42.74-3.55-6.75-8.67-11.07-14.4-15.29C352.67,34.84,327.76,26.62,301,22.86c-7.87-1.11-16.44-1.09-22.29-8.18-1.2-1.45-2.47-2.72-2.12-4.79,4.29.45,7.93,2.84,12,4,3.24,2.26,7.12,2.47,10.79,3.08a198.58,198.58,0,0,1,79.29,31.3,57.41,57.41,0,0,1,19.79,22.57c6.31,12.67,10.92,26,15.93,39.22,5.88,15.5,11.41,31.14,19,45.92l4.27,10c-.13.67.25,1,.8,1.23a1.19,1.19,0,0,0,.19.77c-.11.67.25,1,.84,1.17,2.44,3.2,1.62,5.09-1.85,7.21a310.16,310.16,0,0,1-36.12,19.17c2.41,1.19,4.2.11,6-.63a303.1,303.1,0,0,0,31.81-15.51c2-1.13,3.69-2.06,5.34.63,1.76,2.86-1.08,3-2.21,3.86-8.29,6-17.53,10.15-27.08,13.66-13.71,5-27.91,8.87-40.71,16.19-1.95,1.11-2.47.19-3.24-1.35-4.07-8.18-8.57-16.13-12-24.66s-5-17.57-7.91-26.24c-3.2-9.68-7.23-19.27-1.41-29.36.49-.85.85-2.53-.44-2.11-4.26,1.4-2.68-2-2.89-3.41-.8-5.3.54-10.71-.62-16.71-2.12,4.64-1.27,9.08-2.36,13.18Z" transform="translate(0 -5.11)"/><path class="cls-1" d="M21.85,193.07c18.29,7.27,37.89,10.91,55.48,20.08,2.22,1.16,2.67.16,3.54-1.55,1.11-2.17-.22-2.54-1.68-3.1q-8.33-3.22-16.64-6.47l.3-1.92c5.79,1.47,11.57,3,17.38,4.39,1.18.29,2.41,1.07,3.6-.38,3.39-4.11,3.27-14.61-.58-18.28a74.84,74.84,0,0,1-22.88-43.79l1.64-.14c5.45,16.32,12.94,31.24,28.61,41.34.81-5,3.28-9,3.19-13.85-.14-8.13-.18-16.27-.26-24.4-.15-1.55.71-3.55-1.83-4,.2-3.25-1.25-6-2.5-8.87l1.78-.3c1.14.42,1.15,2.4,3.28,2-.27-3.28.33-6.59-.6-9.87l-.06-2,.57-1,1.27,0c2.33,3.26.72,7.06,1.42,10.56,2.71,13.46,2.37,27.15,1.36,40.64-.62,8.27-1.66,16.5-1.54,24.83-.5,21-3.51,41.9-3,63,.17,1.3.24,2.63.53,3.9,3.43,15.12,6.06,30.34,6.77,45.87.46,10.1.12,20.19-.21,30.47,21.32-14.59,31.65-36.37,40.57-59.18,0,5.46-2.33,10-4.31,14.73-8.12,19.26-20.26,36.2-31.11,53.9-2.86,4.67-7.41,8.46-8,14.4-3.11,23.12-4.86,46.31-3.41,69.66.14,2.33,0,4.06,3.28,4,20.32-.15,40.57,1.57,60.85,2.48,28.56,1.29,56.84-1.5,85.13-4.72,9.58-1.09,19.13-2.5,28.8-2.61v3.17c-20.54,2-41.07,4.09-61.62,6-9.78.9-19.59,1.42-29.39,2.11h-15l-49-2-2-.06a177.48,177.48,0,0,0-21.44-.81c-2.13,0-3.34-.27-3.31-2.93C91,423.23,88.53,408,90.68,393c3.33-23.34,3-46.83,4.36-70.25a193.62,193.62,0,0,0-4.29-55c-1.72-7.46-1.44-14.87-1-22.34.72-13.47,1.6-26.92,2.36-40.39a42.83,42.83,0,0,0-.27-4.95l.64-2.64c0-.79.25-1.84-.92-1.9-.74,0-.88.8-1,1.46l-.14,1.73c-3.11,6.69-4.73,14-8.68,20.34l-1.41.1c-16.77-8.92-35.07-14-52.59-21-2.13-.85-4.13-2-6.19-3Z" transform="translate(0 -5.11)"/><path class="cls-1" d="M343.87,123.11c1.09-4.1.24-8.55,2.36-13.18,1.16,6-.18,11.42.62,16.71.21,1.38-1.37,4.8,2.89,3.41,1.29-.42.93,1.26.44,2.11-5.82,10.1-1.79,19.69,1.41,29.36,2.87,8.67,4.5,17.7,7.91,26.24s7.9,16.48,12,24.66c.77,1.54,1.29,2.46,3.24,1.35,12.8-7.32,27-11.15,40.71-16.19,9.55-3.51,18.78-7.69,27.08-13.66,1.13-.81,4-1,2.21-3.86-1.65-2.69-3.31-1.76-5.34-.63a303.1,303.1,0,0,1-31.81,15.51c-1.81.74-3.59,1.82-6,.63a310.16,310.16,0,0,0,36.12-19.17c3.48-2.12,4.29-4,1.85-7.21l-.84-1.17a1.19,1.19,0,0,1-.19-.77l-.8-1.23-4.27-10,2.5-1.16c4.66,8.56,9.17,17.22,14.09,25.63,1.66,2.83-.19,3.4-1.71,4.54-11.84,8.82-25.12,14.85-38.83,20.06C395.34,210.45,381,215.46,367.93,224l-7.71-25.05-1.28.16c-.36,5.85-.84,11.74.12,17.58,2.75,16.7,3.33,33.38.76,50.18-3.53,23.13-1.89,46.25,2.12,69.08,4.12,23.42,3,46.73,1.18,70.15-.37,4.64-.65,9.28-1,13.92h-5.32c.14-10.34,1.55-20.57,2.7-30.82,2.43-21.64-.69-42.84-4.29-64.06-.93-5.51-1.31-11.12-2.33-16.86-5.72,13.16-10.58,26.71-18.54,40.13-.91-3.75,3-6.24-.45-8.63-.75-.52.82-1.07,1.33-1.54A20.81,20.81,0,0,0,341.22,328c3.88-13.94,9-27.65,11.51-41.83,2.67-15,4.93-30.23,4.76-45.59,0-4.36-1.55-8.52-3.07-12.56a53.22,53.22,0,0,1-3.57-25c1.92-16.82-1.1-33.08-4.66-49.34-.91-4.17-1.25-8.47-1.85-12.71.08-3,.28-6.08-.81-9Z" transform="translate(0 -5.11)"/><path class="cls-1" d="M97.92,364.05c.61-5.94,5.16-9.73,8-14.4,10.84-17.7,23-34.63,31.11-53.9,2-4.68,4.3-9.27,4.31-14.73-8.93,22.81-19.25,44.6-40.57,59.18.32-10.28.67-20.37.21-30.47-.71-15.53-3.34-30.75-6.77-45.87-.29-1.27-.36-2.6-.53-3.9,2.58.6,2.27,3,2.86,4.77,2.8,8.2,5.75,16.29,11,23.33,3.53,4.71,6.53,5.15,10.58.79,6.34-6.82,10-15.28,13.26-23.82,5.56-14.39,10.33-29,12.76-45.15a24,24,0,0,1,3.29,9c4.89,24.88,1,48.84-8.08,72.13-8.44,21.75-20.92,41.09-36.14,58.69C101.76,361.43,100.43,363.54,97.92,364.05Z" transform="translate(0 -5.11)"/><path class="cls-1" d="M60.38,142.06a74.84,74.84,0,0,0,22.88,43.79c3.86,3.67,4,14.17.58,18.28-1.19,1.45-2.42.67-3.6.38-5.8-1.42-11.59-2.92-17.38-4.39-3.39-.73-6.53-3.86-10.29-1.11a10.56,10.56,0,0,1-7-2.81c-.12-.6-.1-1.66-.38-1.75-6.56-2-12.54-5.87-19.58-6.43-5.45-2.18-11.24-3.73-16.57-9.28,7.38,1.81,13.39,3.23,19.37,4.76A68.22,68.22,0,0,0,49.58,186c5.69-.34,7.69-3.56,4.78-8.26-4.71-7.62-5.67-16.23-6.67-24.72-2.46-20.92-.06-41.62,3.91-62.18a3.94,3.94,0,0,1,1.75-3.12c2.37,12.44,3.86,24.95,7.21,37.05,3.54,12.77,6.64,25.76,14.67,36.78a13.91,13.91,0,0,0,4.08,4.29c3.41,1.94,6.19,1.89,8.06-2.3,2.25-5.07,3-10.48,4.16-15.82.24-1.16.22-2.34,1.52-2.89a1,1,0,0,1,.5.17c.08,8.13.12,16.27.26,24.4.08,4.8-2.38,8.87-3.19,13.85C75,173.15,67.47,158.24,62,141.92c-.67-2.76-.83-5.72-3.27-8.7A21.11,21.11,0,0,0,60.38,142.06Z" transform="translate(0 -5.11)"/><path class="cls-1" d="M356.84,420h5.32l-.7,20-.9,1c-13.88.92-27.48-1.81-41.18-3.26-6.93-.73-13.88-1.32-20.83-2l-.09-4.09c11.51-.7,22.79,1.52,34.15,2.72,3.3.35,6.6.61,9.9.92,3.66,1.14,7.47.72,11.2,1.09,1.42.14,3.57,1,3.75-1.69.15-2.23.67-4.69-2.73-5.23-2.41-.38-4.76-1.09-7.14-1.65-16.34-4.65-33.11-6.06-50-6.52-11.3-.9-22.54,0-33.74,1.27-13.36,1.51-26.78,2.16-40.19,3l0-1.45c29.91-2.91,59.73-7.27,89.91-6.11a331.86,331.86,0,0,1,38.37,3.64C353.65,422,356.34,423.79,356.84,420Z" transform="translate(0 -5.11)"/><path class="cls-1" d="M435.91,154.86l-2.5,1.16c-7.62-14.77-13.15-30.42-19-45.92-5-13.2-9.62-26.55-15.93-39.22a57.41,57.41,0,0,0-19.79-22.57A198.58,198.58,0,0,0,299.37,17c-3.68-.61-7.55-.81-10.79-3.08l1.21-1L307.57,16c.09.56.31,1,1,.79l4,.22c.39,1.15.91,1,1.5.16,7.35,2,14.76,3.75,22.05,5.9a165.73,165.73,0,0,1,43.71,20.17,65.36,65.36,0,0,1,26.76,33.7c3.74,10.43,6.73,21.17,10.54,31.51,5.53,15,10.73,30.26,18.18,44.53A12,12,0,0,1,435.91,154.86Z" transform="translate(0 -5.11)"/><path class="cls-1" d="M21.85,193.07l-.32,2c-7.24-2.61-13.67-6.7-20.12-10.78-1.65-1-1.69-2-.9-3.61,18.42-38,30.15-78.77,46.84-117.52A40.89,40.89,0,0,1,62.3,45C79,33.7,97.85,28,117.06,23.08c.41-.1.91.19,1.37.31-.29,1.86-2,1.54-3.12,1.9-14.94,4.7-29.57,10.11-43.2,18C62,49.08,54.41,56.83,49.35,67.58,38.41,90.79,29.64,114.83,21,138.93l-5.06,13.45-1.06,1.32a1.26,1.26,0,0,0,1.94-.46c3.62-2.7,6.22-6.74,10.76-8.24-3,4.85-7.55,8.27-11.34,12.37-6.35,6.88-8,16-12.1,23.85-1.15,2.19,1,2.54,2.08,3.16C11.36,187.37,16.62,190.19,21.85,193.07Z" transform="translate(0 -5.11)"/><path class="cls-1" d="M96.73,197c-.12-8.32.92-16.56,1.54-24.83,1-13.49,1.35-27.18-1.36-40.64-.71-3.5.91-7.29-1.42-10.56a9.05,9.05,0,0,0-2.35-8.65l.34,4.65H91.64c-2.92-11-6.83-21.69-10.48-32.58a51.09,51.09,0,0,1,15.53,17c6.12,10.4,8.17,21.85,8.95,33.76,1.3,19.75-2.84,38.8-6.72,57.91C98.64,194.47,99.16,196.68,96.73,197Z" transform="translate(0 -5.11)"/><path class="cls-1" d="M217.58,28c-15.17,1.29-29.63-2.46-43.93-6.65a71.91,71.91,0,0,0-26.36-2.45,12.93,12.93,0,0,1-5-.52c7.44-3,15.29-3.84,23.19-4.4,3.52.51,5.69,4.52,9.9,3.86-1.15-2.25-3.94-2.63-4.75-4.91,1.48-1,.35-4.26,3.52-4,1.56.13,3.72-2,4,1.68.05.82,1.47,1.78,2.46,2.28,10.34,5.28,21.25,9.15,32.21,12.87,1.2.41,2.64.11,4,.15a1.06,1.06,0,0,1,.84.19Z" transform="translate(0 -5.11)"/><path class="cls-1" d="M289.79,12.9l-1.21,1c-4-1.2-7.68-3.59-12-4-4-2.42-7.91-2.33-12.16-.24-6.8,3.33-14.3,4-21.73,4.24-4,.11-5.35,1.28-5.24,5.36.19,6.88-.07,6.89-6.93,6.41V23c3.25.13,5.25-.67,5.14-4.7s-2.78-3.3-5.12-3.3c-3.31,0-6.62.1-9.93.16l-3.16.87c-1.57-2.35-4.15-1.41-6.28-2-3.18-.82-7.1.47-9.3-3.19l-.09-.06c16.23.51,32.47,1,48.67-.73A28.44,28.44,0,0,0,260.94,7c5.19-2.81,10.12-2.21,15.27-.1C280.79,8.78,285.56,10.21,289.79,12.9Z" transform="translate(0 -5.11)"/><path class="cls-1" d="M27.55,145c-4.54,1.5-7.14,5.53-10.76,8.24l-.87-.86L21,138.93c6,.1,12-2,18.14.12C35.13,140.92,32.36,144.86,27.55,145Z" transform="translate(0 -5.11)"/><path class="cls-1" d="M93.7,124c.92,3.29.33,6.6.6,9.87-2.12.36-2.14-1.61-3.28-2-.59-1-1.55-1-2.53-.83-4.83-2.66-7-8.2-11.93-10.81a1.42,1.42,0,0,1-.45-1.26c.28-1.06,1.3-.93,2.06-.84A18.14,18.14,0,0,1,86,121C88.34,122.49,90.64,124.23,93.7,124Z" transform="translate(0 -5.11)"/><path class="cls-1" d="M347.6,427.88c2.38.56,4.74,1.27,7.14,1.65,3.4.54,2.89,3,2.73,5.23-.19,2.7-2.34,1.82-3.75,1.69-3.73-.36-7.55.05-11.2-1.09C342.83,431.93,347.79,431.66,347.6,427.88Z" transform="translate(0 -5.11)"/><path class="cls-1" d="M298.47,431.73l.09,4.09-11,.33h-3l-6-.26v-3.57A128.78,128.78,0,0,1,298.47,431.73Z" transform="translate(0 -5.11)"/><path class="cls-1" d="M25.64,188c7,.56,13,4.38,19.58,6.43.28.09.26,1.14.38,1.75C38.85,193.69,31.84,191.85,25.64,188Z" transform="translate(0 -5.11)"/><path class="cls-1" d="M230.56,23v2.63l-10,.52-3,0a1.06,1.06,0,0,0-.84-.19l1-3.88,2.81.87Z" transform="translate(0 -5.11)"/><path class="cls-1" d="M166.56,444.16h15C178.62,446.82,169.51,446.82,166.56,444.16Z" transform="translate(0 -5.11)"/><path class="cls-1" d="M220.59,22.94l-2.81-.87-.29-6,3.16-.87C223.41,17.78,220.76,20.35,220.59,22.94Z" transform="translate(0 -5.11)"/><path class="cls-1" d="M52.56,199c3.77-2.75,6.9.38,10.29,1.11l-.3,1.92Z" transform="translate(0 -5.11)"/><path class="cls-1" d="M170.64,13c.81,2.27,3.6,2.65,4.75,4.91-4.21.66-6.38-3.35-9.9-3.86C166.75,11.4,168.54,11.42,170.64,13Z" transform="translate(0 -5.11)"/><path class="cls-1" d="M111.35,426.82c1.2.32,2.61-.14,4,1.18-2.58,1.92-5.46.47-8,1.16l-1.74,0a1.93,1.93,0,0,0-2.3-1,2.71,2.71,0,0,1-.78-.09l.06-1.23Z" transform="translate(0 -5.11)"/><path class="cls-1" d="M278.58,432.34v3.57l-6,.17v-3.17A13.59,13.59,0,0,1,278.58,432.34Z" transform="translate(0 -5.11)"/><path class="cls-1" d="M343.54,132c1.09,2.93.89,6,.81,9-1.84-.28-1.78-1.68-1.78-3s0-2.74-1.86-3c-.1-1.11-.28-2.24.84-3Z" transform="translate(0 -5.11)"/><path class="cls-1" d="M181,6.19c2.57-1.87,4.46-.59,6.23.79.45.35.2,1.35-.45,1.66C183.94,10,183.16,6.55,181,6.19Z" transform="translate(0 -5.11)"/><path class="cls-1" d="M343.54,132h-2q0-4.5.07-9l2.25.11Z" transform="translate(0 -5.11)"/><path class="cls-1" d="M91.64,117h1.84l.73,4-.57,1C90.44,121.34,92,118.8,91.64,117Z" transform="translate(0 -5.11)"/><path class="cls-1" d="M217.58,26.14l3,0c-.34,1.68-.7,3.31-3,1.86Q217.58,27.09,217.58,26.14Z" transform="translate(0 -5.11)"/><path class="cls-1" d="M102.61,426.85l-.06,1.23c-1.1-.51-3.47.87-3.17-1.39C99.53,425.53,101.52,425.93,102.61,426.85Z" transform="translate(0 -5.11)"/><path class="cls-1" d="M131.43,20.49c-.13,1-.64,1.33-1.36,1.33-.52,0-1-.24-.78-.89s.41-1.74,1.55-1.42C131.14,19.6,131.29,20.25,131.43,20.49Z" transform="translate(0 -5.11)"/><path class="cls-1" d="M134.3,18.13c.48.5.92.76,1,1.13a1.1,1.1,0,0,1-.82,1.5c-.61.15-1.44.23-1.22-.81A7.83,7.83,0,0,1,134.3,18.13Z" transform="translate(0 -5.11)"/><path class="cls-1" d="M193.54,7.35c.66,1.34,1,1.93,1.24,2.55s-.08.93-.63,1a1.18,1.18,0,0,1-1.41-1.06A11.14,11.14,0,0,1,193.54,7.35Z" transform="translate(0 -5.11)"/><path class="cls-1" d="M90.4,198.66l.14-1.73,1.88.44L91.79,200Z" transform="translate(0 -5.11)"/><path class="cls-1" d="M284.56,436.17h3c-.15,1-.48,1.83-1.72,1.69C284.87,437.73,284.71,436.94,284.56,436.17Z" transform="translate(0 -5.11)"/><path class="cls-1" d="M93.56,145a1,1,0,0,0-.5-.17c.38-1.56-2-2.16-1.32-3.84C94.27,141.45,93.41,143.46,93.56,145Z" transform="translate(0 -5.11)"/><path class="cls-1" d="M189.82,9.9c-.21-.19-.68-.42-.78-.76a.6.6,0,0,1,.78-.77,1.57,1.57,0,0,1,1,.79C191,9.73,190.5,9.89,189.82,9.9Z" transform="translate(0 -5.11)"/><path class="cls-1" d="M115.56,442.12l2,.06c-.11.65-.19,1.42-1,1.39S115.66,442.76,115.56,442.12Z" transform="translate(0 -5.11)"/><path class="cls-1" d="M103.32,428.17a1.93,1.93,0,0,1,2.3,1C104.16,430.47,103.8,429.2,103.32,428.17Z" transform="translate(0 -5.11)"/><path class="cls-1" d="M200.06,10.89l1.75-.06.1.06c-.62-.77-1.23-.89-1.82,0Z" transform="translate(0 -5.11)"/><path class="cls-1" d="M200.08,10.93c-.5.24-1,.49-1.51.71,0,0-.13-.25-.19-.38l1.67-.37Z" transform="translate(0 -5.11)"/><path class="cls-1" d="M88.49,131c1-.15,1.94-.21,2.53.83l-1.78.3Z" transform="translate(0 -5.11)"/><path class="cls-1" d="M308.55,16.79c-.68.17-.89-.23-1-.79Z" transform="translate(0 -5.11)"/><path class="cls-1" d="M293.56,368l-.22.43.24-.42Z" transform="translate(0 -5.11)"/><path class="cls-1" d="M314.05,17.16c-.59.82-1.12,1-1.5-.16Z" transform="translate(0 -5.11)"/><path class="cls-1" d="M80.31,219.11l1.41-.1C81.33,220.2,80.85,220,80.31,219.11Z" transform="translate(0 -5.11)"/><path class="cls-1" d="M360.56,441l.9-1C361.59,440.73,361.42,441.19,360.56,441Z" transform="translate(0 -5.11)"/><path class="cls-1" d="M223.62,424.18l0,1.45c-13.69,1.17-27.4,2-41.15,2.24v-1.05c7.51-1.55,15.18-.7,22.75-1.53C211.36,424.62,217.51,424.53,223.62,424.18Z" transform="translate(0 -5.11)"/><path class="cls-1" d="M155.38,427.71c4.38-1,8.81-.79,13.24-.59l.12,1.18c-4.37,1.1-8.81.79-13.24.58Z" transform="translate(0 -5.11)"/><path class="cls-1" d="M155.38,427.71l.13,1.17H134.27l0-1.17Z" transform="translate(0 -5.11)"/><path class="cls-1" d="M168.74,428.3l-.12-1.18,13.9-.31v1.05Z" transform="translate(0 -5.11)"/><path class="cls-1" d="M438.66,168l.84,1.17C438.91,169,438.55,168.68,438.66,168Z" transform="translate(0 -5.11)"/><path class="cls-1" d="M437.67,166l.8,1.23C437.92,167,437.54,166.68,437.67,166Z" transform="translate(0 -5.11)"/><path class="cls-1" d="M94.21,121l-.73-4-.34-4.65A9.05,9.05,0,0,1,95.48,121Z" transform="translate(0 -5.11)"/><path class="cls-1" d="M60.38,142.06a21.11,21.11,0,0,1-1.63-8.84c2.45,3,2.6,5.94,3.27,8.7Z" transform="translate(0 -5.11)"/><path class="cls-1" d="M92.42,197.38l-1.88-.44c.08-.66.23-1.5,1-1.46C92.67,195.54,92.41,196.59,92.42,197.38Z" transform="translate(0 -5.11)"/><path class="cls-1" d="M16.79,153.24a1.26,1.26,0,0,1-1.94.46l1.06-1.32Z" transform="translate(0 -5.11)"/><path class="cls-1" d="M220.59,22.94c.17-2.59,2.82-5.15.06-7.76,3.31-.06,6.62-.17,9.93-.16,2.34,0,5-.87,5.12,3.3s-1.88,4.82-5.14,4.7Z" transform="translate(0 -5.11)"/></svg>